
<svg xmlns="http://www.w3.org/2000/svg" version="1.1" xmlns:xlink="http://www.w3.org/1999/xlink" preserveAspectRatio="none" x="0px" y="0px" width="352px" height="288px" viewBox="0 0 352 288">
<defs>
<linearGradient id="Gradient_1" gradientUnits="userSpaceOnUse" x1="171.9625" y1="93.6375" x2="172.23749999999998" y2="3.9624999999999915" spreadMethod="pad">
<stop  offset="0%" stop-color="#006699" stop-opacity="0.30196078431372547"/>

<stop  offset="100%" stop-color="#006699"/>
</linearGradient>

<radialGradient id="Gradient_2" gradientUnits="userSpaceOnUse" cx="0" cy="0" r="10.299999999999999" fx="0" fy="0" gradientTransform="matrix( 1, 0, 0, 5.803398058252427, 9.85,-16.4) " spreadMethod="pad">
<stop  offset="10.588235294117647%" stop-color="#FFFFFF" stop-opacity="0.8"/>

<stop  offset="100%" stop-color="#FFFFFF" stop-opacity="0"/>
</radialGradient>

<linearGradient id="Gradient_3" gradientUnits="userSpaceOnUse" x1="-29.125" y1="73.55" x2="28.225" y2="73.55" spreadMethod="pad">
<stop  offset="0%" stop-color="#F0EAE5"/>

<stop  offset="24.705882352941178%" stop-color="#FFFFFF"/>

<stop  offset="53.333333333333336%" stop-color="#F0EBE6"/>

<stop  offset="98.82352941176471%" stop-color="#E6DDD5"/>
</linearGradient>

<linearGradient id="Gradient_4" gradientUnits="userSpaceOnUse" x1="-28.625" y1="32.25" x2="28.225" y2="32.25" spreadMethod="pad">
<stop  offset="0%" stop-color="#990000"/>

<stop  offset="24.705882352941178%" stop-color="#D30101"/>

<stop  offset="53.333333333333336%" stop-color="#990000"/>

<stop  offset="98.82352941176471%" stop-color="#650101"/>
</linearGradient>

<radialGradient id="Gradient_5" gradientUnits="userSpaceOnUse" cx="0" cy="0" r="20.994500768058288" fx="0" fy="0" gradientTransform="matrix( 0.9889494505908298, 0.14825310848712622, -0.7871108812047424, 5.240658075918414, -8.75,-81.75) " spreadMethod="pad">
<stop  offset="0%" stop-color="#FFFFFF"/>

<stop  offset="43.92156862745098%" stop-color="#F0EBE6"/>

<stop  offset="98.82352941176471%" stop-color="#E6DDD5"/>
</radialGradient>

<linearGradient id="Gradient_6" gradientUnits="userSpaceOnUse" x1="-28.625" y1="6.5" x2="28.225" y2="6.5" spreadMethod="pad">
<stop  offset="0%" stop-color="#F0EAE5"/>

<stop  offset="24.705882352941178%" stop-color="#FFFFFF"/>

<stop  offset="53.333333333333336%" stop-color="#F0EBE6"/>

<stop  offset="98.82352941176471%" stop-color="#E6DDD5"/>
</linearGradient>

<radialGradient id="Gradient_7" gradientUnits="userSpaceOnUse" cx="0" cy="0" r="19.388914358467833" fx="0" fy="0" gradientTransform="matrix( 0.9902565788380345, 0.1392548313990986, -0.3881083726956359, 2.7689791706441134, -4.2,8.25) " spreadMethod="pad">
<stop  offset="0%" stop-color="#FEC849"/>

<stop  offset="100%" stop-color="#966801"/>
</radialGradient>

<radialGradient id="Gradient_8" gradientUnits="userSpaceOnUse" cx="0" cy="0" r="18.75" fx="0" fy="0" gradientTransform="matrix( 1.0000000000000002, 0, 0, 1.0000000000000002, 2.95,-0.95) " spreadMethod="pad">
<stop  offset="0%" stop-color="#CC9900"/>

<stop  offset="100%" stop-color="#966801"/>
</radialGradient>

<radialGradient id="Gradient_9" gradientUnits="userSpaceOnUse" cx="0" cy="0" r="175.70000000000002" fx="0" fy="0" gradientTransform="matrix( 1, 0, 0, 1, 0,0) " spreadMethod="pad">
<stop  offset="7.8431372549019605%" stop-color="#FF0000"/>

<stop  offset="100%" stop-color="#FFCC00" stop-opacity="0"/>
</radialGradient>

<filter id="Filter_1" x="-20%" y="-20%" width="140%" height="140%" color-interpolation-filters="sRGB">
<feColorMatrix in="SourceGraphic" type="matrix" values="1 0 0 0 0 0 1 0 0 0 0 0 1 0 0 0 0 0 0.72 0" result="result1"/>
</filter>

<filter id="Filter_2" x="-20%" y="-20%" width="140%" height="140%" color-interpolation-filters="sRGB">
<feColorMatrix in="SourceGraphic" type="matrix" values="0.53 0 0 0 0.47058823529411764 0 0.53 0 0 0.47058823529411764 0 0 0.53 0 0.47058823529411764 0 0 0 1 0" result="result1"/>
</filter>

<g id="Layer7_0_FILL">
<path fill="#001D3B" stroke="none" d="
M 351.95 288
L 351.95 0 0 0 0 288 351.95 288 Z"/>
</g>

<g id="Layer6_0_FILL">
<path fill="url(#Gradient_1)" stroke="none" d="
M 358 97
L 358 0.55 -13.75 0.55 -13.75 97 358 97 Z"/>
</g>

<g id="Tween_4_0_Layer0_0_FILL">
<path fill="#FFFFFF" stroke="none" d="
M -56.5 183.6
Q -56.05 184 -55.65 184.05 -48.1 184.2 -53.95 179.4 -54.5 179.5 -55.05 179.75 -57.65 180.95 -56.5 183.6
M -122.55 70.4
Q -122.25 70 -122.1 69.5 -120.55 65.1 -125.35 63.95 -125.35 64.05 -125.4 64.1 -126.9 64.75 -128.45 65.35 -128.85 66.2 -129.1 67.05 -129.3 67.85 -129.3 68.7 -127 73.65 -122.55 70.4
M -35.1 32.15
Q -34.1 32.45 -33.4 32.15 -27.25 29.65 -33.15 26.55
L -33.15 26.7
Q -38.1 27.9 -35.1 32.15
M -12.05 -89.3
Q -11.65 -88.85 -11.2 -88.85 -3.65 -88.7 -9.5 -93.5 -10.1 -93.35 -10.6 -93.1 -13.2 -91.95 -12.05 -89.3
M -115.6 -99.2
Q -112.2 -103.4 -117.45 -105.3 -118.2 -105.15 -118.6 -104.75 -123.7 -99.5 -116.05 -98.85 -115.8 -99 -115.6 -99.2
M -72.2 -161.25
Q -71.25 -160.95 -70.5 -161.25 -64.35 -163.8 -70.25 -166.85 -70.25 -166.75 -70.3 -166.7 -75.2 -165.5 -72.2 -161.25
M -53.95 -249.6
Q -54.5 -249.5 -55.05 -249.25 -57.65 -248.05 -56.5 -245.4 -56.05 -245 -55.65 -244.95 -48.1 -244.8 -53.95 -249.6
M -122.1 -359.5
Q -120.55 -363.9 -125.35 -365.05 -125.35 -364.95 -125.4 -364.9 -126.9 -364.25 -128.45 -363.65 -128.85 -362.8 -129.1 -361.95 -129.3 -361.15 -129.3 -360.3 -127 -355.35 -122.55 -358.6 -122.25 -359 -122.1 -359.5
M -33.4 -396.85
Q -27.25 -399.35 -33.15 -402.45
L -33.15 -402.3
Q -38.1 -401.1 -35.1 -396.85 -34.1 -396.55 -33.4 -396.85
M -116.05 -527.85
Q -115.8 -528 -115.6 -528.2 -112.2 -532.4 -117.45 -534.3 -118.2 -534.15 -118.6 -533.75 -123.7 -528.5 -116.05 -527.85
M -10.6 -522.1
Q -13.2 -520.95 -12.05 -518.3 -11.65 -517.85 -11.2 -517.85 -3.65 -517.7 -9.5 -522.5 -10.1 -522.35 -10.6 -522.1
M -70.25 -595.85
Q -70.25 -595.75 -70.3 -595.7 -75.2 -594.5 -72.2 -590.25 -71.25 -589.95 -70.5 -590.25 -64.35 -592.8 -70.25 -595.85
M 91.4 172.15
Q 91.25 171.75 91.15 171.3 90.3 168.5 87.2 168.25 86.5 168.35 85.8 168.6 83.85 169.2 83.25 171.05 82.05 175.75 87.2 176.65 88.15 176.4 89.05 175.9 91.35 174.7 91.4 172.15
M 51.75 63.35
Q 56.4 66.7 58.25 61.4 58.25 61 58.15 60.6 57.45 57.9 54.6 57.45 53.85 57.6 53.25 57.9 49.5 59.9 51.75 63.35
M 97.3 9.85
Q 97 9.85 97 9.95 95.7 14.55 97.3 9.85
M 146.4 -35.9
Q 146.65 -36.35 146.8 -36.8 148.45 -42.25 143.3 -44.05 142.6 -43.9 141.9 -43.7 139.7 -43 139.35 -40.7 140.25 -34.25 146.4 -35.9
M 117.55 -13.75
Q 117.25 -13.75 117.25 -13.7 115.95 -9.05 117.55 -13.75
M 104.3 -67.2
Q 104.75 -66.8 105.15 -66.75 112.7 -66.6 106.85 -71.4 106.3 -71.3 105.75 -71.05 103.2 -69.85 104.3 -67.2
M 129.35 -50.2
Q 129.05 -50.2 129.05 -50.1 127.55 -46.8 129.35 -50.2
M 87.2 -260.75
Q 86.5 -260.65 85.8 -260.4 83.85 -259.8 83.25 -257.95 82.05 -253.25 87.2 -252.35 88.15 -252.6 89.05 -253.1 91.35 -254.3 91.4 -256.85 91.25 -257.25 91.15 -257.7 90.3 -260.5 87.2 -260.75
M 58.15 -368.4
Q 57.45 -371.1 54.6 -371.55 53.85 -371.4 53.25 -371.1 49.5 -369.1 51.75 -365.65 56.4 -362.3 58.25 -367.6 58.25 -368 58.15 -368.4
M 97.3 -419.15
Q 97 -419.15 97 -419.05 95.7 -414.45 97.3 -419.15
M 117.25 -442.7
Q 115.95 -438.05 117.55 -442.75 117.25 -442.75 117.25 -442.7
M 129.05 -479.1
Q 127.55 -475.8 129.35 -479.2 129.05 -479.2 129.05 -479.1
M 146.8 -465.8
Q 148.45 -471.25 143.3 -473.05 142.6 -472.9 141.9 -472.7 139.7 -472 139.35 -469.7 140.25 -463.25 146.4 -464.9 146.65 -465.35 146.8 -465.8
M 105.75 -500.05
Q 103.2 -498.85 104.3 -496.2 104.75 -495.8 105.15 -495.75 112.7 -495.6 106.85 -500.4 106.3 -500.3 105.75 -500.05 Z"/>
</g>

<g id="Symbol_2_0_Layer0_0_FILL">
<path fill="#FFFFFF" fill-opacity="0.2" stroke="none" d="
M -79 116.45
Q -78.9 116.35 -78.9 116.2 -76.75 75.65 -74.65 35.65 -80.4 65.05 -82.8 96.85 -83.7 109.45 -79 116.45
M -119.3 153.4
Q -119.15 153 -119.15 152.6 -119.55 112.6 -120.8 72.6 -122.55 92.55 -123.05 113.65 -123.55 135.65 -119.3 153.4
M -159.05 112.1
Q -158.8 111.85 -158.8 111.6 -160.65 80.8 -162.9 50 -163.6 49.8 -163.6 50.3 -162.25 81.5 -159.05 112.1
M -106.7 20.25
Q -106.6 19.9 -106.55 19.5 -105.9 -4.75 -106.45 -28.2 -109.55 -13.85 -110.2 2.8 -110.65 14.25 -106.7 20.25
M -20.3 45.9
Q -21.2 66.7 -21.7 89.8 -23.15 152 -15.4 211.1 -13.75 190.45 -14.5 167.45 -16.6 106.2 -20.3 45.9
M -159.3 -59
Q -159.15 -59.35 -159.15 -59.75 -157.35 -93.6 -157.75 -127.45 -158.95 -110.6 -160.5 -92.65 -162.1 -73.7 -159.3 -59
M -83.9 -109
Q -84.6 -109.2 -84.6 -108.75 -85.55 -66.7 -84.15 -26.9 -83.5 -27.2 -83.45 -27.5 -79.15 -68.4 -83.9 -109
M -103.65 -187.75
Q -103.65 -188.1 -103.8 -188.2 -104.0052734375 -188.30859375 -104.25 -188.4 -104.923828125 -188.24921875 -105.6 -188 -105.7 -188 -105.7 -187.75 -105.7 -186.95 -105.75 -186.2 -108.25 -158.65 -104.9 -131.55 -105.05 -130.8 -105.3 -130.1 -106.65 -126.45 -104.15 -125.4 -103.9 -125.8 -103.85 -126.2 -103.3 -130.3 -101.6 -133.85 -101.7 -134.65 -101.75 -135.4 -102.85 -161.65 -103.65 -187.75
M 96.7 126.95
Q 96.3 127.1 96.3 127.2 98.55 154.3 101.05 178.5 101.05 178.15 101.05 177.75 100.4 152.1 96.7 126.95
M 46.4 38.75
Q 45.35 38.7 45.3 39.75 43.35 100.6 42.55 161.35 43.05 160.8 43.15 160.25 48.85 99.45 46.4 38.75
M 100.8 -80.25
Q 99.2 -62.4 98.6 -42.6 96.7 18.85 99.5 79.5 100.5 61.2 100.75 42.05 101.6 -19.3 100.8 -80.25
M 27.95 -118.25
Q 27.2 -118.45 27.2 -117.95 26.8 -104.6 25.65 -91.3 25.1 -90.05 24.1 -89 24.1 -88.2 24.05 -87.45 21.7 -46.45 22.55 -5.1 23.1 -2.3 25.9 -3.6 26.15 -3.95 26.15 -4.35 29.05 -61.8 27.95 -118.25
M 120.25 -186.95
Q 120.25 -186.2 120.25 -185.45 117.45 -133.5 121.05 -82.6 121.45 -82.85 121.4 -83.1 120.1658203125 -136.8578125 120.55 -187.45 120.410546875 -187.2173828125 120.25 -186.95 Z"/>
</g>

<g id="gwiazda_0_Layer0_0_FILL">
<path fill="url(#Gradient_2)" stroke="none" d="
M 22 -33.9
Q 22.005078125 -68.5005859375 17.1 -93.05 12.1314453125 -117.7509765625 5 -117.7 -2.131640625 -117.7509765625 -7.1 -93.05 -12.0052734375 -68.5005859375 -12 -33.9 -12.0052734375 0.7650390625 -7.1 25.2 -2.1322265625 50.027734375 5 49.95 12.131640625 50.027734375 17.1 25.2 22.0052734375 0.7650390625 22 -33.9 Z"/>
</g>

<g id="racket_0_Layer0_0_FILL">
<path fill="#D7C7BF" stroke="none" d="
M 24.75 106.7
Q 24.45 106.8 24.2 107 19.9 109.85 14.75 111.25 7.8 113.15 0.75 113
L 0.75 115.45
Q 1.95 115.5 3.15 115.5 6.9 115.5 10.25 115.1 12.85 114.75 15.25 114.2 20.55 112.95 24.75 110.45
L 24.75 106.7
M 29.15 71.15
L 28.5 71.15 28.15 72.8 28.25 109 31.4 110.65 31.5 77.75 31.5 74.1 29.15 71.15
M -3.25 112.75
Q -4.95 112.55 -6.65 112.25 -15.45 110.7 -23.5 107.05 -24.4 106.6 -25.15 107.25 -25.2 107.3 -25.25 107.35
L -25.25 109.15
Q -22.05 110.65 -18.75 111.8 -15.55 112.95 -12.25 113.7 -7.8 114.75 -3.25 115.2
L -3.25 112.75
M -27.95 72.4
L -29.1 69.6 -29.15 71.15 -31.45 74.05 -31.45 77.15 -31.4 112.95 -28.4 111.15 -28.4 108.45 -29.1 71.65 -27.95 72.4
M -28.35 33.3
L -28.35 34.1
Q -24.55 37.65 -19.45 39.8 -12.95 42.6 -5.85 43.2 2.95 43.95 11.5 42.05 20.5 40.05 28.25 35.45
L 28.25 32.5
Q 26.95 34.3 24.3 36 21.6 37.65 15.25 39.45 12.85 40.1 9.6 40.75 6.35 41.4 0.65 41.7 -5 41.95 -10 40.95 -15 39.95 -19.4 38.15 -23.8 36.35 -28.35 33.3
M 25.2 -22.05
Q 26.7 -22.95 28.1 -23.75
L 27.85 -25.75
Q 26.2 -24.7 24.5 -23.75 16.35 -19.2 7.1 -18.25 -1.9 -17.4 -11.4 -19.55 -20.95 -21.75 -27.45 -26.1
L -27.8 -23.85
Q -20.2 -20.3 -11.95 -18.45 -2.8 -16.3 6.75 -16.65 16.8 -16.9 25.2 -22.05 Z"/>

<path fill="#5B4735" stroke="none" d="
M 52.25 125.45
L 49.75 123.75 41.3 117.9 41.3 100.35 38 99 38 115.7 31.4 110.65 28.25 109 28.25 116 52.75 131.5 52.25 125.45
M -28.35 111.1
L -28.4 111.15 -31.4 112.95 -41 118.75 -41 100.25 -43.55 102.5 -43.75 120.4 -50.45 124.4 -52.2 125.5 -52.75 131.5 -28.25 116 -28.35 111.1 Z"/>

<path fill="#F0EBE6" stroke="none" d="
M 46.05 97.55
L 31.5 77.75 31.4 110.65 38 115.7 38 99 41.3 100.35 41.3 117.9 49.75 123.75 46.05 97.55
M 27.75 73.1
Q 27.95 72.95 28.15 72.8
L 28.5 71.15 28.25 71.15 24.75 75.15
Q 26.35 74.2 27.75 73.1
M -28.35 111.1
L -28.4 108.45 -28.4 111.15 -28.35 111.1
M -31.45 77.15
Q -36.55 84.7 -42 92 -44.65 95.55 -47.15 99.1 -47.05 100.35 -47.25 101.75 -48.05 107.2 -48.7 112.65 -49.35 118.55 -50.45 124.4
L -43.75 120.4 -43.55 102.5 -41 100.25 -41 118.75 -31.4 112.95 -31.45 77.15
M -29.1 69.6
L -27.95 72.4 -27.2 72.9
Q -26.25 73.4 -25.25 73.85
L -29.1 69.6 Z"/>

<path fill="#FBF8F7" stroke="none" d="
M 31.5 74.1
L 31.5 77.75 46.05 97.55 49.75 123.75 52.25 125.45 49.75 97 31.5 74.1
M -31.45 77.15
L -31.45 74.05 -49.75 97 -52.2 125.5 -50.45 124.4
Q -49.35 118.55 -48.7 112.65 -48.05 107.2 -47.25 101.75 -47.05 100.35 -47.15 99.1 -44.65 95.55 -42 92 -36.55 84.7 -31.45 77.15 Z"/>

<path fill="#1E1711" stroke="none" d="
M 28.25 58.05
L 28.25 51.45 25.75 52.6 25.7 58.95 28.25 58.05
M -25.25 73.85
Q -26.25 73.4 -27.2 72.9
L -27.95 72.4 -29.1 71.65 -28.4 108.45 -28.35 111.1 -28.25 116
Q -27.05 117.4 -25.25 118.7 -22.65 120.5 -18.75 122.05 -18.35 122.2 -17.95 122.35 -15.2 123.4 -12.25 124.15 -7.9 125.2 -3.25 125.65 -2.65 125.7 -2.05 125.75 -0.6 125.85 0.75 125.9 5.9 126.1 10.25 125.45 12.9 125.05 15.25 124.35 20.75 122.75 24.75 119.5 26.65 117.95 28.25 116
L 28.25 109 28.15 72.8
Q 27.95 72.95 27.75 73.1 26.35 74.2 24.75 75.15
L 24.75 106.7 24.75 110.45
Q 20.55 112.95 15.25 114.2 12.85 114.75 10.25 115.1 6.9 115.5 3.15 115.5 1.95 115.5 0.75 115.45
L 0.75 113 0.75 80.15 -3.25 80.15 -3.25 112.75 -3.25 115.2
Q -7.8 114.75 -12.25 113.7 -15.55 112.95 -18.75 111.8 -22.05 110.65 -25.25 109.15
L -25.25 107.35 -25.25 73.85
M -28.8 54.1
L -28.9 58.45 -26.1 59.6 -25.65 52.85 -28.65 51.75 -28.8 54.1
M -3.5 61
L -3.5 67.4 0.1 67.4 0 61 -3.5 61
M 3.15 -9.6
Q 6.9 -9.6 10.25 -10
L 10.25 -4.15
Q 12.85 -4.45 15.25 -5
L 15.25 -10.9
Q 22.6 -12.65 27.8 -16.7 28 -16.9 28.25 -17.05
L 28.25 -23.5 28.1 -23.75
Q 26.7 -22.95 25.2 -22.05 16.8 -16.9 6.75 -16.65 -2.8 -16.3 -11.95 -18.45 -20.2 -20.3 -27.8 -23.85
L -28.05 -24 -28.1 -17.8
Q -23.2 -14.85 -18.75 -13.3
L -18.75 -7.65
Q -15.55 -6.5 -12.25 -5.7
L -12.25 -11.4
Q -4.75 -9.6 3.15 -9.6 Z"/>

<path fill="#990000" stroke="none" d="
M 28.25 22.65
Q 27.95 22.8 27.75 23
L 28.25 23 28.25 22.65 Z"/>

<path fill="url(#Gradient_3)" stroke="none" d="
M -5.85 43.2
Q -12.95 42.6 -19.45 39.8 -24.55 37.65 -28.35 34.1
L -28.8 54.1 -28.65 51.75 -25.65 52.85 -26.1 59.6 -28.9 58.45 -29.1 69.6 -25.25 73.85 -25.25 107.35
Q -25.2 107.3 -25.15 107.25 -24.4 106.6 -23.5 107.05 -15.45 110.7 -6.65 112.25 -4.95 112.55 -3.25 112.75
L -3.25 80.15 0.75 80.15 0.75 113
Q 7.8 113.15 14.75 111.25 19.9 109.85 24.2 107 24.45 106.8 24.75 106.7
L 24.75 75.15 28.25 71.15 28.25 58.05 25.7 58.95 25.75 52.6 28.25 51.45 28.25 35.45
Q 20.5 40.05 11.5 42.05 2.95 43.95 -5.85 43.2
M -3.5 67.4
L -3.5 61 0 61 0.1 67.4 -3.5 67.4 Z"/>

<path fill="url(#Gradient_4)" stroke="none" d="
M -28.5 22.8
L -28.6 22.8 -28.35 33.3
Q -23.8 36.35 -19.4 38.15 -15 39.95 -10 40.95 -5 41.95 0.65 41.7 6.35 41.4 9.6 40.75 12.85 40.1 15.25 39.45 21.6 37.65 24.3 36 26.95 34.3 28.25 32.5
L 28.25 23 27.75 23
Q 22.6 27.05 15.25 28.8 12.85 29.35 10.25 29.7 6.85 30.1 3.1 30.1 -4.75 30.1 -10.1 28.95 -15.5 27.8 -19.2 26.8 -22.95 25.75 -28.5 22.8 Z"/>

<path fill="url(#Gradient_5)" stroke="none" d="
M 7.1 -18.25
Q 16.35 -19.2 24.5 -23.75 26.2 -24.7 27.85 -25.75 19.3 -91.45 -2.9 -131.5 -22.4 -84.2 -27.45 -26.1 -20.95 -21.75 -11.4 -19.55 -1.9 -17.4 7.1 -18.25 Z"/>

<path fill="url(#Gradient_6)" stroke="none" d="
M 10.25 -10
Q 6.9 -9.6 3.15 -9.6 -4.75 -9.6 -12.25 -11.4
L -12.25 -5.7
Q -15.55 -6.5 -18.75 -7.65
L -18.75 -13.3
Q -23.2 -14.85 -28.1 -17.8
L -28.6 22.8 -28.5 22.8
Q -22.95 25.75 -19.2 26.8 -15.5 27.8 -10.1 28.95 -4.75 30.1 3.1 30.1 6.85 30.1 10.25 29.7 12.85 29.35 15.25 28.8 22.6 27.05 27.75 23 27.95 22.8 28.25 22.65
L 28.25 -17.05
Q 28 -16.9 27.8 -16.7 22.6 -12.65 15.25 -10.9
L 15.25 -5
Q 12.85 -4.45 10.25 -4.15
L 10.25 -10 Z"/>
</g>

<g id="Symbol_1_0_Layer1_0_FILL">
<path fill="url(#Gradient_7)" stroke="none" d="
M 6.45 -13.7
Q 3.5 -14.41484375 0.4 -14.1 -1.775 -13.5326171875 -4.2 -13.35 -7.1849609375 -13.116015625 -9.05 -11.1 -9.3986328125 -10.7107421875 -9.75 -10.25 -10.02890625 -9.8005859375 -10.35 -9.35 -11.2583984375 -7.9080078125 -12.1 -6.45 -12.2015625 -6.187890625 -12.35 -5.95
L -12.8 -5.1
Q -12.8482421875 -4.9501953125 -12.95 -4.8 -13.6412109375 -3.383203125 -14.25 -1.95 -14.634765625 -0.9951171875 -15 -0.05 -15.6505859375 1.8326171875 -16.15 3.75 -16.1642578125 3.837890625 -16.2 3.9 -16.294921875 4.385546875 -16.4 4.85 -16.504296875 5.2984375 -16.6 5.7 -16.88046875 7.0736328125 -17.1 8.45 -14.8224609375 10.8498046875 -11.85 12.25 -9.752734375 13.2498046875 -7.5 13.55 -2.6849609375 14.1958984375 2.15 14.25
L 6.75 14.15
Q 8.447265625 13.95234375 9.7 13.85 10.48984375 13.7125 11.25 13.55 13.7431640625 12.9533203125 16 11.8 16.584765625 11.4974609375 16.75 10.95 17.2970703125 9.0384765625 16.9 6.9 16.72265625 6.028515625 16.35 5.1
L 16.35 5
Q 16.315234375 4.9103515625 16.25 4.8 15.6671875 3.1458984375 15 1.5 14.5740234375 0.5193359375 14.1 -0.5 14.0880859375 -0.5505859375 14.05 -0.65 13.28671875 -2.3453125 12.45 -4.05 11.9150390625 -5.083203125 11.35 -6.15 11.3125 -6.19765625 11.25 -6.3
L 9.2 -9.85
Q 9.0134765625 -10.16328125 8.8 -10.5 7.8357421875 -12.03203125 6.75 -13.55 6.6349609375 -13.65234375 6.45 -13.7 Z"/>
</g>

<g id="Symbol_1_0_Layer0_0_FILL">
<path fill="url(#Gradient_8)" stroke="none" d="
M 6.45 -13.7
Q 3.5 -14.41484375 0.4 -14.1 -1.775 -13.5326171875 -4.2 -13.35 -7.1849609375 -13.116015625 -9.05 -11.1 -9.3986328125 -10.7107421875 -9.75 -10.25 -9.9294921875 -9.94765625 -11.2 -7.75 -4.022265625 -11.8982421875 0.9 -9.8 5.8173828125 -7.6416015625 11.1 3.75 13.9251953125 9.7642578125 14.25 11.25 14.6458984375 11.8255859375 14.9 12.3 15.45390625 12.0791015625 16 11.8 16.584765625 11.4974609375 16.75 10.95 17.180078125 9.45234375 17 7.8 15.8056640625 5.721484375 14.1 3.8 15.139453125 4.7388671875 16.1 4.4 15.590234375 2.9587890625 15 1.5 14.5740234375 0.5193359375 14.1 -0.5 14.0880859375 -0.5505859375 14.05 -0.65 13.28671875 -2.3453125 12.45 -4.05 11.9150390625 -5.083203125 11.35 -6.15 11.3125 -6.19765625 11.25 -6.3
L 9.2 -9.85
Q 9.0134765625 -10.16328125 8.8 -10.5 7.8357421875 -12.03203125 6.75 -13.55 6.6349609375 -13.65234375 6.45 -13.7 Z"/>
</g>

<g id="Symbol_141_0_Layer0_0_FILL">
<path fill="url(#Gradient_9)" stroke="none" d="
M 123.05 -123.05
Q 72.1 -174 0 -174 -72.1 -174 -123.05 -123.05 -174 -72.1 -174 0 -174 72.1 -123.05 123.05 -72.1 174 0 174 72.1 174 123.05 123.05 174 72.1 174 0 174 -72.1 123.05 -123.05 Z"/>
</g>

<g id="Symbol_142_0_Layer0_0_FILL">
<path fill="#FFF7DF" fill-opacity="0.32941176470588235" stroke="none" d="
M 683.55 274.6
Q 673.0162109375 263.7072265625 661.8 264.55 650.8693359375 263.699609375 640.1 274.3
L 640.05 274.3
Q 589.901953125 323.5296875 605.95 393.4 605.770703125 394.422265625 605.65 395.4
L 605.65 395.45
Q 594.4607421875 487.4697265625 650.65 575.35 654.3755859375 581.19453125 661 582.9 667.671875 584.6408203125 673.7 581.3 679.7916015625 578.0115234375 681.95 571.45 689.6181640625 548.3927734375 698 528.9
L 698 528.85
Q 721.8666015625 473.2439453125 726.85 410.2
L 726.85 410.2
Q 729.954296875 370.980078125 717.45 332.2 706.5294921875 298.2189453125 683.55 274.6
M 661.8 270.4
Q 670.8349609375 269.82265625 679.35 278.65 701.43203125 301.3416015625 711.95 333.95 724.0654296875 371.648828125 721.05 409.75
L 721.05 409.75
Q 716.1486328125 471.825 692.65 526.6 684.1634765625 546.29765625 676.4 569.65 674.9818359375 573.99921875 670.95 576.2 666.9103515625 578.41484375 662.45 577.25 658.037890625 576.1255859375 655.55 572.25 600.5494140625 486.2048828125 611.4 396.15
L 611.4 396.15
Q 611.5990234375 394.719140625 611.9 393.3 595.9263671875 325.853125 644.15 278.45 652.9515625 269.817578125 661.8 270.4 Z"/>

<path fill="#FFF7DF" fill-opacity="0.6627450980392157" stroke="none" d="
M 679.35 278.65
Q 670.8349609375 269.82265625 661.8 270.4 652.9515625 269.817578125 644.15 278.45 595.9263671875 325.853125 611.9 393.3 611.5990234375 394.719140625 611.4 396.15
L 611.4 396.15
Q 600.5494140625 486.2048828125 655.55 572.25 658.037890625 576.1255859375 662.45 577.25 666.9103515625 578.41484375 670.95 576.2 674.9818359375 573.99921875 676.4 569.65 684.1634765625 546.29765625 692.65 526.6 716.1486328125 471.825 721.05 409.75
L 721.05 409.75
Q 724.0654296875 371.648828125 711.95 333.95 701.43203125 301.3416015625 679.35 278.65
M 648.25 282.6
L 648.25 282.6
Q 655.0466796875 275.9345703125 661.8 276.2 668.640234375 275.9373046875 675.15 282.7 696.309765625 304.476953125 706.4 335.75 718.151171875 372.3306640625 715.25 409.3 710.4177734375 470.38125 687.3 524.3 678.720703125 544.2025390625 670.9 567.8 670.172265625 569.987109375 668.15 571.1 666.1365234375 572.201171875 663.9 571.6 661.7126953125 571.0439453125 660.45 569.1 606.6625 484.913671875 617.2 396.85 617.43515625 395.091015625 617.9 393.35 601.8640625 328.2369140625 648.25 282.6 Z"/>

<path fill="#FFF7DF" stroke="none" d="
M 648.25 282.6
L 648.25 282.6
Q 601.8640625 328.2369140625 617.9 393.35 617.43515625 395.091015625 617.2 396.85 606.6625 484.913671875 660.45 569.1 661.7126953125 571.0439453125 663.9 571.6 666.1365234375 572.201171875 668.15 571.1 670.172265625 569.987109375 670.9 567.8 678.720703125 544.2025390625 687.3 524.3 710.4177734375 470.38125 715.25 409.3 718.151171875 372.3306640625 706.4 335.75 696.309765625 304.476953125 675.15 282.7 668.640234375 275.9373046875 661.8 276.2 655.0466796875 275.9345703125 648.25 282.6 Z"/>
</g>

<g id="Symbol_143_0_Layer0_0_FILL">
<path fill="#FFFFFF" stroke="none" d="
M 672 288
Q 670.95 280.45 664.95 277 663.95 277.25 663 277.65 661.25 278.5 661.6 280.35 661.7107421875 280.9115234375 661.8 281.45
L 661.05 280.95
Q 631.45 335.55 635.65 398.15 638 433.6 651.1 466.65 645.1 487.3 649.3 508.45 651.25 518.3 658.15 525.55 662.3 529.85 667.7 532.7 684.4 503.55 687.8 470.2 688.95 459.05 688.45 448 689.4 449.3 690.45 450.6 690.8 451.05 691.3 451.45 691.7 451.8 692.25 452 692.7 452.25 693.2 452.4 693.75 452.45 694.3 452.45 694.85 452.45 695.45 452.4 696.05 452.2 696.6 451.9 697.25 451.65 697.85 451.35 701.71328125 391.9828125 685.65 336.2 685.6265625 336.053125 685.6 335.9 680.6 311.5 672.2 288.75 672.05 288.35 672 288 Z"/>
</g>

<g id="bt1_0_Layer5_0_FILL">
<path fill="#000000" fill-opacity="0.25098039215686274" stroke="none" d="
M 148 84
L 148 2 -5.05 2 -5.05 29.35 -5 29.35 -5 84 148 84 Z"/>
</g>

<g id="bt1_0_Layer4_0_FILL">
<path fill="#5C77A3" stroke="none" d="
M 146 82
L 146 0 -7.05 0 -7.05 29.35 -7 29.35 -7 82 146 82 Z"/>
</g>

<g id="bt1_0_Layer3_0_FILL">
<path fill="#FFFFFF" stroke="none" d="
M 145 81
L 145 1 -6 1 -6 81 145 81 Z"/>
</g>

<g id="bt1_0_Layer2_0_FILL">
<path fill="#DBEDFD" stroke="none" d="
M 142.9 79
L 142.9 24 -4.15 24 -4.15 29.35 -4.1 29.35 -4.1 79 142.9 79 Z"/>

<path fill="#F4F8FF" stroke="none" d="
M 142.95 23
L 142.95 3 47.75 3 47.75 2.95 -4.05 2.95 -4.05 22.95 23.5 22.95 23.5 23 142.95 23 Z"/>
</g>

<g id="podkladka_bia_a_19_Layer2_0_FILL">
<path fill="#FFFFFF" fill-opacity="0.8509803921568627" stroke="none" d="
M 140.4 -116.15
L -161.1 -116.15 -161.1 109.85 140.4 109.85 140.4 -116.15 Z"/>
</g>

<g id="Layer3_5_FILL">
<path fill="#000000" stroke="none" d="
M 49.7 258.3
L 49.7 257 42.15 257 42.15 258.3 49.7 258.3
M 42.15 253.5
L 42.15 254.8 49.7 254.8 49.7 253.5 42.15 253.5
M 67.55 253.55
Q 67 253.05 65.95 253.05 65.2 253.05 64.5 253.45 63.8 253.85 63.15 254.6 63 253.9 62.5 253.5 61.95 253.05 61.2 253.05 60.45 253.05 59.85 253.4 59.2 253.75 58.45 254.6
L 58.7 253.25 57.3 253.25 55.55 261.55 57 261.55 57.8 257.65
Q 58.05 256.35 58.5 255.7 58.9 255 59.55 254.6 60.2 254.25 60.8 254.25 61.25 254.25 61.5 254.5 61.75 254.75 61.75 255.15 61.75 255.4 61.6 255.95
L 60.45 261.55 61.85 261.55 62.7 257.55
Q 62.95 256.25 63.35 255.6 63.7 255 64.35 254.6 65 254.25 65.65 254.25 66.1 254.25 66.35 254.45 66.65 254.7 66.65 255.1 66.65 255.4 66.5 256.05
L 65.35 261.55 66.75 261.55 67.85 256.2
Q 68.05 255.3 68.05 254.95 68.05 254.05 67.55 253.55
M 75.4 255.4
Q 75.4 255.75 75.25 256.35 74.7 256.55 73.35 256.65 72 256.7 71.55 256.8 70.8 256.9 70.25 257.25 69.75 257.55 69.4 258.1 69.1 258.65 69.1 259.35 69.1 260.4 69.8 261.05 70.5 261.75 71.65 261.75 72.45 261.75 73.1 261.45 73.8 261.15 74.55 260.5 74.55 261.15 74.7 261.55
L 76.1 261.55
Q 75.95 260.8 75.95 260.45 75.95 259.8 76.15 258.8
L 76.65 256.75
Q 76.8 255.9 76.8 255.2 76.8 254.35 76.15 253.8 75.25 253.05 73.7 253.05 72.25 253.05 71.3 253.7 70.35 254.4 69.9 255.6
L 71.35 255.75
Q 71.6 255 72.15 254.6 72.75 254.2 73.65 254.2 74.55 254.2 75.05 254.6 75.4 254.9 75.4 255.4
M 71.55 257.95
Q 72.05 257.75 73.3 257.65 74.05 257.6 74.4 257.55 74.75 257.45 75.05 257.35 74.85 258.55 74.45 259.25 74.1 259.9 73.45 260.3 72.8 260.65 72.1 260.65 71.35 260.65 70.9 260.25 70.5 259.9 70.5 259.3 70.5 258.85 70.75 258.45 71.05 258.1 71.55 257.95
M 37.35 251.4
L 37.6 250.1 30.15 250.1 27.8 261.55 29.3 261.55 30.4 256.35 36.4 256.35 36.7 255.05 30.65 255.05 31.45 251.4 37.35 251.4
M 146.25 258.2
L 143.5 250.1 141.25 250.1 141.25 261.55 142.7 261.55 142.7 251.8 146 261.55 147.4 261.55 150.7 251.95 150.7 261.55 152.15 261.55 152.15 250.1 150.15 250.1 147.4 258.05
Q 146.95 259.3 146.8 259.9 146.6 259.35 146.25 258.2
M 156.15 250.1
L 154.6 250.1 154.6 261.55 156.05 261.55 156.05 252.55 162.1 261.55 163.65 261.55 163.65 250.1 162.2 250.1 162.2 259.1 156.15 250.1
M 87.1 254.8
L 94.65 254.8 94.65 253.5 87.1 253.5 87.1 254.8
M 87.1 258.3
L 94.65 258.3 94.65 257 87.1 257 87.1 258.3 Z"/>
</g>

<g id="Layer3_6_FILL">
<path fill="#000000" stroke="none" d="
M 231.2 18.85
L 231.2 20.15 238.75 20.15 238.75 18.85 231.2 18.85
M 231.2 22.35
L 231.2 23.65 238.75 23.65 238.75 22.35 231.2 22.35
M 225.35 20.55
Q 225.35 19.7 224.7 19.15 223.8 18.4 222.25 18.4 220.8 18.4 219.85 19.05 218.9 19.75 218.45 20.95
L 219.9 21.1
Q 220.15 20.35 220.7 19.95 221.3 19.55 222.2 19.55 223.1 19.55 223.6 19.95 223.95 20.25 223.95 20.75 223.95 21.1 223.8 21.7 223.25 21.9 221.9 22 220.55 22.05 220.1 22.15 219.35 22.25 218.8 22.6 218.3 22.9 217.95 23.45 217.65 24 217.65 24.7 217.65 25.75 218.35 26.4 219.05 27.1 220.2 27.1 221 27.1 221.65 26.8 222.35 26.5 223.1 25.85 223.1 26.5 223.25 26.9
L 224.65 26.9
Q 224.5 26.15 224.5 25.8 224.5 25.15 224.7 24.15
L 225.2 22.1
Q 225.35 21.25 225.35 20.55
M 222.95 22.9
Q 223.3 22.8 223.6 22.7 223.4 23.9 223 24.6 222.65 25.25 222 25.65 221.35 26 220.65 26 219.9 26 219.45 25.6 219.05 25.25 219.05 24.65 219.05 24.2 219.3 23.8 219.6 23.45 220.1 23.3 220.6 23.1 221.85 23 222.6 22.95 222.95 22.9
M 270.85 19.65
Q 271.65 19.65 272 20.1 272.35 20.55 272.35 21.5
L 272.35 26.9 273.75 26.9 273.75 22.1
Q 273.75 20.8 274.3 20.2 274.9 19.65 275.75 19.65 276.25 19.65 276.6 19.85 277 20.1 277.1 20.45 277.25 20.85 277.25 21.65
L 277.25 26.9 278.65 26.9 278.65 21.2
Q 278.65 19.8 278 19.1 277.3 18.4 276.1 18.4 274.5 18.4 273.5 19.85 273.3 19.2 272.7 18.8 272.1 18.4 271.2 18.4 270.35 18.4 269.7 18.8 269.05 19.15 268.65 19.75
L 268.65 18.6 267.4 18.6 267.4 26.9 268.8 26.9 268.8 22.6
Q 268.8 21.45 269.05 20.85 269.25 20.25 269.75 19.95 270.25 19.65 270.85 19.65
M 300.8 14.35
Q 299.75 14.35 299.1 14.9 298.5 15.45 298.4 16.5
L 299.35 16.55
Q 299.35 15.85 299.75 15.5 300.1 15.1 300.8 15.1 301.4 15.1 301.8 15.45 302.2 15.85 302.2 16.35 302.2 16.9 301.75 17.45 301.35 18.05 300.1 19.05 299.35 19.7 298.95 20.2 298.5 20.65 298.3 21.15 298.2 21.45 298.2 21.8
L 303.15 21.8 303.15 20.9 299.5 20.9
Q 299.65 20.65 299.85 20.45 300.1 20.2 300.95 19.5 301.9 18.65 302.35 18.2 302.75 17.7 302.95 17.25 303.15 16.85 303.15 16.4 303.15 15.5 302.5 14.9 301.9 14.35 300.8 14.35
M 292.15 18.75
L 292.15 19.45 297.9 19.45 297.9 18.75 292.15 18.75
M 286.25 20.65
Q 286.25 20.2 286.65 19.9 287.05 19.55 288.05 19.55 288.85 19.55 289.3 19.95 289.75 20.3 289.85 20.95
L 291.2 20.75
Q 291.1 19.95 290.75 19.45 290.4 19 289.65 18.7 288.9 18.4 287.95 18.4 287.3 18.4 286.7 18.6 286.15 18.75 285.8 19 285.4 19.3 285.15 19.8 284.9 20.25 284.9 20.8 284.9 21.4 285.2 21.9 285.5 22.4 286.1 22.7 286.7 23 288.25 23.4 289.4 23.65 289.65 23.85 290.1 24.15 290.1 24.6 290.1 25.15 289.6 25.55 289.15 25.95 288.2 25.95 287.2 25.95 286.7 25.5 286.15 25.05 286.05 24.2
L 284.65 24.4
Q 284.9 25.75 285.75 26.4 286.55 27.1 288.2 27.1 289.15 27.1 289.95 26.75 290.7 26.4 291.15 25.8 291.55 25.15 291.55 24.45 291.55 23.75 291.2 23.25 290.85 22.8 290.3 22.55 289.7 22.25 288.2 21.85 287.15 21.6 286.95 21.5 286.6 21.35 286.4 21.15 286.25 20.9 286.25 20.65 Z"/>
</g>

<g id="Layer3_7_FILL">
<path fill="#000000" stroke="none" d="
M 72.6 20.9
L 80.15 20.9 80.15 19.6 72.6 19.6 72.6 20.9
M 72.6 24.4
L 80.15 24.4 80.15 23.1 72.6 23.1 72.6 24.4
M 64.5 20.35
Q 64.95 20.35 65.2 20.55 65.5 20.8 65.5 21.2 65.5 21.5 65.35 22.15
L 64.2 27.65 65.6 27.65 66.7 22.3
Q 66.9 21.4 66.9 21.05 66.9 20.15 66.4 19.65 65.85 19.15 64.8 19.15 64.05 19.15 63.35 19.55 62.65 19.95 62 20.7 61.85 20 61.35 19.6 60.8 19.15 60.05 19.15 59.3 19.15 58.7 19.5 58.05 19.85 57.3 20.7
L 57.55 19.35 56.15 19.35 54.4 27.65 55.85 27.65 56.65 23.75
Q 56.9 22.45 57.35 21.8 57.75 21.1 58.4 20.7 59.05 20.35 59.65 20.35 60.1 20.35 60.35 20.6 60.6 20.85 60.6 21.25 60.6 21.5 60.45 22.05
L 59.3 27.65 60.7 27.65 61.55 23.65
Q 61.8 22.35 62.2 21.7 62.55 21.1 63.2 20.7 63.85 20.35 64.5 20.35
M 128.25 16.45
L 126.85 17.3 126.85 19.35 125.85 19.35 125.85 20.45 126.85 20.45 126.85 25.2
Q 126.85 26.5 127.05 26.9 127.2 27.3 127.65 27.5 128.05 27.75 128.8 27.75 129.3 27.75 129.9 27.65
L 129.7 26.4
Q 129.3 26.45 129.05 26.45 128.75 26.45 128.6 26.35 128.4 26.25 128.35 26.05 128.25 25.9 128.25 25.3
L 128.25 20.45 129.7 20.45 129.7 19.35 128.25 19.35 128.25 16.45 Z"/>
</g>

<g id="up_over_0_Layer2_0_FILL">
<path fill="#495F85" stroke="none" d="
M -217.5 331.5
Q -228.7 331.5 -236.6 339.4 -244.5 347.3 -244.5 358.5 -244.5 369.7 -236.6 377.6 -228.7 385.5 -217.5 385.5 -206.3 385.5 -198.4 377.6 -190.5 369.7 -190.5 358.5 -190.5 347.3 -198.4 339.4 -206.3 331.5 -217.5 331.5 Z"/>
</g>

<g id="up_over_0_Layer1_0_FILL">
<path fill="#FFFFFF" stroke="none" d="
M -217.5 331.5
Q -228.7 331.5 -236.6 339.4 -244.5 347.3 -244.5 358.5 -244.5 369.7 -236.6 377.6 -228.7 385.5 -217.5 385.5 -206.3 385.5 -198.4 377.6 -190.5 369.7 -190.5 358.5 -190.5 347.3 -198.4 339.4 -206.3 331.5 -217.5 331.5 Z"/>
</g>

<g id="up_over_0_Layer0_0_MEMBER_0_FILL">
<path fill="#495F85" stroke="none" d="
M 28.35 17.2
Q 28.15 17.2 28 17.2 22.7 17.2 19.05 20.9 15.25 24.55 15.25 29.9 15.25 35.15 19.05 38.9
L 19.05 38.95
Q 22.7 42.55 28 42.55 32.4 42.55 35.75 39.95
L 35.9 39.8
Q 36.2 39.55 36.6 39.25
L 37.1 38.8
Q 38.45 37.25 39.3 35.75
L 40.8 32.95 35.1 29.9 33.55 32.7
Q 33.1 33.5 32.45 34.3 31.95 34.65 31.6 34.95 30 36.1 28 36.1 25.4 36.1 23.6 34.35 21.75 32.45 21.75 29.9 21.75 27.25 23.55 25.5
L 23.6 25.45
Q 25.4 23.65 28 23.65 28.15 23.65 28.35 23.65
L 31.6 23.65 31.6 17.2 28.35 17.2 Z"/>
</g>

<g id="up_over_0_Layer0_0_MEMBER_1_FILL">
<path fill="#495F85" stroke="none" d="
M 30.45 13.5
L 30.45 27.25 40.4 20.45 30.45 13.5 Z"/>
</g>

<g id="_resetButton_mc_0_Layer1_0_FILL">
<path fill="#FFFFFF" fill-opacity="0.00784313725490196" stroke="none" d="
M -217.5 331.5
Q -228.7 331.5 -236.6 339.4 -244.5 347.3 -244.5 358.5 -244.5 369.7 -236.6 377.6 -228.7 385.5 -217.5 385.5 -206.3 385.5 -198.4 377.6 -190.5 369.7 -190.5 358.5 -190.5 347.3 -198.4 339.4 -206.3 331.5 -217.5 331.5 Z"/>
</g>

<g id="b_play_0_Layer3_0_FILL">
<path fill="#495F85" stroke="none" d="
M 102 73
Q 102 60.15 92.9 51.05 83.85 42 71 42 58.15 42 49.05 51.05 40 60.15 40 73 40 85.85 49.05 94.9 58.15 104 71 104 83.85 104 92.9 94.9 102 85.85 102 73 Z"/>
</g>

<g id="b_play_0_Layer3_1_FILL">
<path fill="#FFFFFF" stroke="none" d="
M 102 73
Q 102 60.15 92.9 51.05 83.85 42 71 42 58.15 42 49.05 51.05 40 60.15 40 73 40 85.85 49.05 94.9 58.15 104 71 104 83.85 104 92.9 94.9 102 85.85 102 73 Z"/>
</g>

<g id="b_play_0_Layer2_0_FILL">
<path fill="#495F85" stroke="none" d="
M 22 40
L 40 28 22 16 22 40 Z"/>
</g>

<g id="b_play_0_Layer1_0_FILL">
<path fill="#FFFFFF" fill-opacity="0.00784313725490196" stroke="none" d="
M -217.5 331.5
Q -228.7 331.5 -236.6 339.4 -244.5 347.3 -244.5 358.5 -244.5 369.7 -236.6 377.6 -228.7 385.5 -217.5 385.5 -206.3 385.5 -198.4 377.6 -190.5 369.7 -190.5 358.5 -190.5 347.3 -198.4 339.4 -206.3 331.5 -217.5 331.5 Z"/>
</g>

<path id="Layer6_0_1_STROKES" stroke="#006699" stroke-width="1" stroke-linejoin="round" stroke-linecap="round" fill="none" d="
M 358 0.55
L 358 97 -13.75 97 -13.75 0.55 358 0.55 Z"/>

<path id="podkladka_bia_a_19_Layer1_0_1_STROKES" stroke="#014E6D" stroke-width="1" stroke-linejoin="round" stroke-linecap="round" fill="none" d="
M 140 -116.125
L 140 109.875 -161 109.875
Q -161 -5.4359375 -161 -116.125
L 140 -116.125 Z"/>

<path id="podkladka_bia_a_19_Layer0_0_1_STROKES" stroke="#014E6D" stroke-opacity="0" stroke-width="1" stroke-linejoin="round" stroke-linecap="round" fill="none" d="
M -147.8 -116.125
L -147.8 109.875"/>
</defs>

<g transform="matrix( 1, 0, 0, 1, 0,0) ">
<use xlink:href="#Layer7_0_FILL"/>
</g>

<g transform="matrix( 1, 0, 0, 1, 0,0) ">
<use xlink:href="#Layer6_0_FILL"/>

<use xlink:href="#Layer6_0_1_STROKES"/>
</g>

<g id="gwiazdy" transform="matrix( 1, 0, 0, 1, 219.4,172.8) ">
<g transform="matrix( 0.000091552734375, 1.236175537109375, 1.00006103515625, 0.000091552734375, -89.2,4.05) ">
<g id="star_0" transform="matrix( 1, 0, 0, 1, 8.4,-7.15) ">
<g transform="matrix( 1, 0, 0, 1, 0,0) ">
<use xlink:href="#Tween_4_0_Layer0_0_FILL"/>
</g>
</g>
</g>

<g transform="matrix( 0, -1.3235931396484375, 1, 0, -90,42.95) ">
<g id="star_1" transform="matrix( 1, 0, 0, 1, 8.4,-7.15) ">
<g transform="matrix( 1, 0, 0, 1, 0,0) ">
<use xlink:href="#Tween_4_0_Layer0_0_FILL"/>
</g>
</g>
</g>

<g transform="matrix( 0.0001068115234375, -1.3232421875, 1, 0.000091552734375, -89.95,43) ">
<g id="star_2" transform="matrix( 1, 0, 0, 1, 8.4,-7.15) ">
<g transform="matrix( 1, 0, 0, 1, 0,0) ">
<use xlink:href="#Tween_4_0_Layer0_0_FILL"/>
</g>
</g>
</g>

<g transform="matrix( 0, -1.2621917724609375, 1, 0, -176.4,33.75) ">
<g id="star_3" transform="matrix( 1, 0, 0, 1, 8.4,-7.15) ">
<g transform="matrix( 1, 0, 0, 1, 8.95,-378.45) ">
<g transform="matrix( 1, 0, 0, 1, 0,0) ">
<use filter="url(#Filter_1)" xlink:href="#Symbol_2_0_Layer0_0_FILL"/>
</g>

<g transform="matrix( 0.78192138671875, 0, 0, 0.78192138671875, -152,20.65) ">
<g transform="matrix( 1, 0, 0, 1, 0,0) ">
<use filter="url(#Filter_1)" xlink:href="#gwiazda_0_Layer0_0_FILL"/>
</g>
</g>

<g transform="matrix( 0.835113525390625, 0, 0, 1, -124.45,-66.95) ">
<g transform="matrix( 1, 0, 0, 1, 0,0) ">
<use filter="url(#Filter_1)" xlink:href="#gwiazda_0_Layer0_0_FILL"/>
</g>
</g>

<g transform="matrix( 1, 0, 0, 1, -58.95,-144.3) ">
<g transform="matrix( 1, 0, 0, 1, 0,0) ">
<use filter="url(#Filter_1)" xlink:href="#gwiazda_0_Layer0_0_FILL"/>
</g>
</g>

<g transform="matrix( 0.835113525390625, 0, 0, 0.835113525390625, -39.5,-5.75) ">
<g transform="matrix( 1, 0, 0, 1, 0,0) ">
<use filter="url(#Filter_1)" xlink:href="#gwiazda_0_Layer0_0_FILL"/>
</g>
</g>

<g transform="matrix( 0.3989410400390625, 0, 0, 0.3989410400390625, 46.8,12.25) ">
<g transform="matrix( 1, 0, 0, 1, 0,0) ">
<use filter="url(#Filter_1)" xlink:href="#gwiazda_0_Layer0_0_FILL"/>
</g>
</g>

<g transform="matrix( 1, 0, 0, 1, -62.35,145.55) ">
<g transform="matrix( 1, 0, 0, 1, 0,0) ">
<use filter="url(#Filter_1)" xlink:href="#gwiazda_0_Layer0_0_FILL"/>
</g>
</g>

<g transform="matrix( 0.5106353759765625, 0, 0, 0.5106353759765625, -100.75,79.1) ">
<g transform="matrix( 1, 0, 0, 1, 0,0) ">
<use filter="url(#Filter_1)" xlink:href="#gwiazda_0_Layer0_0_FILL"/>
</g>
</g>

<g transform="matrix( 0.78192138671875, 0, 0, 0.78192138671875, 65.25,-97.3) ">
<g transform="matrix( 1, 0, 0, 1, 0,0) ">
<use filter="url(#Filter_1)" xlink:href="#gwiazda_0_Layer0_0_FILL"/>
</g>
</g>

<g transform="matrix( 0.78192138671875, 0, 0, 0.78192138671875, 125.85,112.35) ">
<g transform="matrix( 1, 0, 0, 1, 0,0) ">
<use filter="url(#Filter_1)" xlink:href="#gwiazda_0_Layer0_0_FILL"/>
</g>
</g>

<g transform="matrix( 0.6196746826171875, 0, 0, 0.6196746826171875, 73.4,30.65) ">
<g transform="matrix( 1, 0, 0, 1, 0,0) ">
<use filter="url(#Filter_1)" xlink:href="#gwiazda_0_Layer0_0_FILL"/>
</g>
</g>

<g transform="matrix( 0.5079803466796875, 0, 0, 0.5079803466796875, 4.75,114.6) ">
<g transform="matrix( 1, 0, 0, 1, 0,0) ">
<use filter="url(#Filter_1)" xlink:href="#gwiazda_0_Layer0_0_FILL"/>
</g>
</g>

<g transform="matrix( 0.5106353759765625, 0, 0, 0.5106353759765625, -144.6,195.25) ">
<g transform="matrix( 1, 0, 0, 1, 0,0) ">
<use filter="url(#Filter_1)" xlink:href="#gwiazda_0_Layer0_0_FILL"/>
</g>
</g>
</g>

<g transform="matrix( 1, 0, 0, 1, 8.95,50.55) ">
<g transform="matrix( 1, 0, 0, 1, 0,0) ">
<use filter="url(#Filter_1)" xlink:href="#Symbol_2_0_Layer0_0_FILL"/>
</g>

<g transform="matrix( 0.78192138671875, 0, 0, 0.78192138671875, -152,20.65) ">
<g transform="matrix( 1, 0, 0, 1, 0,0) ">
<use filter="url(#Filter_1)" xlink:href="#gwiazda_0_Layer0_0_FILL"/>
</g>
</g>

<g transform="matrix( 0.835113525390625, 0, 0, 1, -124.45,-66.95) ">
<g transform="matrix( 1, 0, 0, 1, 0,0) ">
<use filter="url(#Filter_1)" xlink:href="#gwiazda_0_Layer0_0_FILL"/>
</g>
</g>

<g transform="matrix( 1, 0, 0, 1, -58.95,-144.3) ">
<g transform="matrix( 1, 0, 0, 1, 0,0) ">
<use filter="url(#Filter_1)" xlink:href="#gwiazda_0_Layer0_0_FILL"/>
</g>
</g>

<g transform="matrix( 0.835113525390625, 0, 0, 0.835113525390625, -39.5,-5.75) ">
<g transform="matrix( 1, 0, 0, 1, 0,0) ">
<use filter="url(#Filter_1)" xlink:href="#gwiazda_0_Layer0_0_FILL"/>
</g>
</g>

<g transform="matrix( 0.3989410400390625, 0, 0, 0.3989410400390625, 46.8,12.25) ">
<g transform="matrix( 1, 0, 0, 1, 0,0) ">
<use filter="url(#Filter_1)" xlink:href="#gwiazda_0_Layer0_0_FILL"/>
</g>
</g>

<g transform="matrix( 1, 0, 0, 1, -62.35,145.55) ">
<g transform="matrix( 1, 0, 0, 1, 0,0) ">
<use filter="url(#Filter_1)" xlink:href="#gwiazda_0_Layer0_0_FILL"/>
</g>
</g>

<g transform="matrix( 0.5106353759765625, 0, 0, 0.5106353759765625, -100.75,79.1) ">
<g transform="matrix( 1, 0, 0, 1, 0,0) ">
<use filter="url(#Filter_1)" xlink:href="#gwiazda_0_Layer0_0_FILL"/>
</g>
</g>

<g transform="matrix( 0.78192138671875, 0, 0, 0.78192138671875, 65.25,-97.3) ">
<g transform="matrix( 1, 0, 0, 1, 0,0) ">
<use filter="url(#Filter_1)" xlink:href="#gwiazda_0_Layer0_0_FILL"/>
</g>
</g>

<g transform="matrix( 0.78192138671875, 0, 0, 0.78192138671875, 125.85,112.35) ">
<g transform="matrix( 1, 0, 0, 1, 0,0) ">
<use filter="url(#Filter_1)" xlink:href="#gwiazda_0_Layer0_0_FILL"/>
</g>
</g>

<g transform="matrix( 0.6196746826171875, 0, 0, 0.6196746826171875, 73.4,30.65) ">
<g transform="matrix( 1, 0, 0, 1, 0,0) ">
<use filter="url(#Filter_1)" xlink:href="#gwiazda_0_Layer0_0_FILL"/>
</g>
</g>

<g transform="matrix( 0.5079803466796875, 0, 0, 0.5079803466796875, 4.75,114.6) ">
<g transform="matrix( 1, 0, 0, 1, 0,0) ">
<use filter="url(#Filter_1)" xlink:href="#gwiazda_0_Layer0_0_FILL"/>
</g>
</g>

<g transform="matrix( 0.5106353759765625, 0, 0, 0.5106353759765625, -144.6,195.25) ">
<g transform="matrix( 1, 0, 0, 1, 0,0) ">
<use filter="url(#Filter_1)" xlink:href="#gwiazda_0_Layer0_0_FILL"/>
</g>
</g>
</g>
</g>
</g>
</g>

<g id="mass" transform="matrix( 0.0282440185546875, -0.8994598388671875, 0.8994598388671875, 0.0282440185546875, 135.8,171.25) ">
<g id="plane" transform="matrix( 0.72943115234375, 0, 0, 0.8175048828125, 2.75,33) ">
<g transform="matrix( 1, 0, 0, 1, 0,0) ">
<use xlink:href="#racket_0_Layer0_0_FILL"/>
</g>
</g>
</g>

<g id="engine" transform="matrix( 0.0282440185546875, -0.8994598388671875, 0.8994598388671875, 0.0282440185546875, 141.8,170.25) ">
<g id="fire_3" transform="matrix( 1, 0, 0, 1, -102.8,123.7) ">
<g transform="matrix( 0.6692352294921875, 0, 0, 0.481658935546875, 84.25,6.8) ">
<g transform="matrix( 1, 0, 0, 1, 0,0) ">
<use xlink:href="#Symbol_1_0_Layer1_0_FILL"/>
</g>

<g transform="matrix( 1, 0, 0, 1, 0,0) ">
<use xlink:href="#Symbol_1_0_Layer0_0_FILL"/>
</g>
</g>

<g transform="matrix( 0.6692352294921875, 0, 0, 0.481658935546875, 125.55,8.65) ">
<g transform="matrix( 1, 0, 0, 1, 0,0) ">
<use xlink:href="#Symbol_1_0_Layer1_0_FILL"/>
</g>

<g transform="matrix( 1, 0, 0, 1, 0,0) ">
<use xlink:href="#Symbol_1_0_Layer0_0_FILL"/>
</g>
</g>

<g transform="matrix( 0.6692352294921875, 0, 0, 0.5599365234375, 97.5,13.05) ">
<g transform="matrix( 1, 0, 0, 1, 0,0) ">
<use xlink:href="#Symbol_1_0_Layer1_0_FILL"/>
</g>

<g transform="matrix( 1, 0, 0, 1, 0,0) ">
<use xlink:href="#Symbol_1_0_Layer0_0_FILL"/>
</g>
</g>

<g transform="matrix( 0.6692352294921875, 0, 0, 0.5616455078125, 114.5,13.05) ">
<g transform="matrix( 1, 0, 0, 1, 0,0) ">
<use xlink:href="#Symbol_1_0_Layer1_0_FILL"/>
</g>

<g transform="matrix( 1, 0, 0, 1, 0,0) ">
<use xlink:href="#Symbol_1_0_Layer0_0_FILL"/>
</g>
</g>

<g id="fire1" transform="matrix( 0.6347503662109375, -0.09197998046875, 0.118865966796875, 0.4912109375, 151.55,61.4) ">
<g transform="matrix( 0.7199859619140625, 0, 0, 0.7199859619140625, -12.95,21.15) ">
<g transform="matrix( 1, 0, 0, 0.7261199951171875, 0,4) ">
<g transform="matrix( 0.453948974609375, 0, 0, 1.195404052734375, 0,0) ">
<g transform="matrix( 1, 0, 0, 1, 0,0) ">
<use filter="url(#Filter_2)" xlink:href="#Symbol_141_0_Layer0_0_FILL"/>
</g>
</g>
</g>

<g transform="matrix( 0.639984130859375, 0, 0, 0.639984130859375, -0.2,-52.95) ">
<g transform="matrix( 1, 0, 0, 1, 0,-0.05) ">
<g transform="matrix( 1, 0, 0, 1, -664.75,-424) ">
<use xlink:href="#Symbol_142_0_Layer0_0_FILL"/>
</g>
</g>

<g transform="matrix( 1, 0, 0, 1, -2.9,-10.2) ">
<g transform="matrix( 1, 0, 0, 1, -666.85,-404.85) ">
<use xlink:href="#Symbol_143_0_Layer0_0_FILL"/>
</g>
</g>
</g>
</g>
</g>

<g id="fire2" transform="matrix( 0.6452178955078125, -0.0138092041015625, 0.017852783203125, 0.499298095703125, 126.9,70.95) ">
<g transform="matrix( 0.7199859619140625, 0, 0, 0.7199859619140625, -12.95,21.15) ">
<g transform="matrix( 1, 0, 0, 0.7261199951171875, 0,4) ">
<g transform="matrix( 0.453948974609375, 0, 0, 1.195404052734375, 0,0) ">
<g transform="matrix( 1, 0, 0, 1, 0,0) ">
<use filter="url(#Filter_2)" xlink:href="#Symbol_141_0_Layer0_0_FILL"/>
</g>
</g>
</g>

<g transform="matrix( 0.639984130859375, 0, 0, 0.639984130859375, -0.2,-52.95) ">
<g transform="matrix( 1, 0, 0, 1, 0,-0.05) ">
<g transform="matrix( 1, 0, 0, 1, -664.75,-424) ">
<use xlink:href="#Symbol_142_0_Layer0_0_FILL"/>
</g>
</g>

<g transform="matrix( 1, 0, 0, 1, -2.9,-10.2) ">
<g transform="matrix( 1, 0, 0, 1, -666.85,-404.85) ">
<use xlink:href="#Symbol_143_0_Layer0_0_FILL"/>
</g>
</g>
</g>
</g>
</g>

<g id="fire3" transform="matrix( 0.6380157470703125, 0.073638916015625, -0.09515380859375, 0.493743896484375, 100.15,67.7) ">
<g transform="matrix( 0.7199859619140625, 0, 0, 0.7199859619140625, -12.95,21.15) ">
<g transform="matrix( 1, 0, 0, 0.7261199951171875, 0,4) ">
<g transform="matrix( 0.453948974609375, 0, 0, 1.195404052734375, 0,0) ">
<g transform="matrix( 1, 0, 0, 1, 0,0) ">
<use filter="url(#Filter_2)" xlink:href="#Symbol_141_0_Layer0_0_FILL"/>
</g>
</g>
</g>

<g transform="matrix( 0.639984130859375, 0, 0, 0.639984130859375, -0.2,-52.95) ">
<g transform="matrix( 1, 0, 0, 1, 0,-0.05) ">
<g transform="matrix( 1, 0, 0, 1, -664.75,-424) ">
<use xlink:href="#Symbol_142_0_Layer0_0_FILL"/>
</g>
</g>

<g transform="matrix( 1, 0, 0, 1, -2.9,-10.2) ">
<g transform="matrix( 1, 0, 0, 1, -666.85,-404.85) ">
<use xlink:href="#Symbol_143_0_Layer0_0_FILL"/>
</g>
</g>
</g>
</g>
</g>

<g id="fire4" transform="matrix( 0.6123046875, 0.1562957763671875, -0.20196533203125, 0.4738311767578125, 69.55,60.45) ">
<g transform="matrix( 0.7199859619140625, 0, 0, 0.7199859619140625, -12.95,21.15) ">
<g transform="matrix( 1, 0, 0, 0.7261199951171875, 0,4) ">
<g transform="matrix( 0.453948974609375, 0, 0, 1.195404052734375, 0,0) ">
<g transform="matrix( 1, 0, 0, 1, 0,0) ">
<use filter="url(#Filter_2)" xlink:href="#Symbol_141_0_Layer0_0_FILL"/>
</g>
</g>
</g>

<g transform="matrix( 0.639984130859375, 0, 0, 0.639984130859375, -0.2,-52.95) ">
<g transform="matrix( 1, 0, 0, 1, 0,-0.05) ">
<g transform="matrix( 1, 0, 0, 1, -664.75,-424) ">
<use xlink:href="#Symbol_142_0_Layer0_0_FILL"/>
</g>
</g>

<g transform="matrix( 1, 0, 0, 1, -2.9,-10.2) ">
<g transform="matrix( 1, 0, 0, 1, -666.85,-404.85) ">
<use xlink:href="#Symbol_143_0_Layer0_0_FILL"/>
</g>
</g>
</g>
</g>
</g>
</g>

<g id="fire_2" transform="matrix( 1, 0, 0, 1, 97.8,217.95) ">
<g transform="matrix( 0.6836700439453125, 0, 0, 0.6799774169921875, -114.5,-84.4) ">
<g transform="matrix( 1, 0, 0, 1, 0,0) ">
<use xlink:href="#Symbol_1_0_Layer1_0_FILL"/>
</g>

<g transform="matrix( 1, 0, 0, 1, 0,0) ">
<use xlink:href="#Symbol_1_0_Layer0_0_FILL"/>
</g>
</g>

<g transform="matrix( 0.6836700439453125, 0, 0, 0.6799774169921875, -76.4,-82.35) ">
<g transform="matrix( 1, 0, 0, 1, 0,0) ">
<use xlink:href="#Symbol_1_0_Layer1_0_FILL"/>
</g>

<g transform="matrix( 1, 0, 0, 1, 0,0) ">
<use xlink:href="#Symbol_1_0_Layer0_0_FILL"/>
</g>
</g>

<g transform="matrix( 0.6836700439453125, 0, 0, 0.7904815673828125, -95.6,-76.15) ">
<g transform="matrix( 1, 0, 0, 1, 0,0) ">
<use xlink:href="#Symbol_1_0_Layer1_0_FILL"/>
</g>

<g transform="matrix( 1, 0, 0, 1, 0,0) ">
<use xlink:href="#Symbol_1_0_Layer0_0_FILL"/>
</g>
</g>

<g id="ogien" transform="matrix( 1, 0, 0, 1, -203.45,-86.85) ">
<g id="fire1_FL" transform="matrix( 0.6417083740234375, -0.1632537841796875, 0.1526641845703125, 0.686248779296875, 155,76.95) ">
<g transform="matrix( 0.7199859619140625, 0, 0, 0.7199859619140625, -12.95,21.15) ">
<g transform="matrix( 1, 0, 0, 0.7261199951171875, 0,4) ">
<g transform="matrix( 0.453948974609375, 0, 0, 1.195404052734375, 0,0) ">
<g transform="matrix( 1, 0, 0, 1, 0,0) ">
<use filter="url(#Filter_2)" xlink:href="#Symbol_141_0_Layer0_0_FILL"/>
</g>
</g>
</g>

<g transform="matrix( 0.639984130859375, 0, 0, 0.639984130859375, -0.2,-52.95) ">
<g transform="matrix( 1, 0, 0, 1, 0,-0.05) ">
<g transform="matrix( 1, 0, 0, 1, -664.75,-424) ">
<use xlink:href="#Symbol_142_0_Layer0_0_FILL"/>
</g>
</g>

<g transform="matrix( 1, 0, 0, 1, -2.9,-10.2) ">
<g transform="matrix( 1, 0, 0, 1, -666.85,-404.85) ">
<use xlink:href="#Symbol_143_0_Layer0_0_FILL"/>
</g>
</g>
</g>
</g>
</g>

<g id="fire2_FL" transform="matrix( 0.6591339111328125, -0.019500732421875, 0.0182342529296875, 0.70489501953125, 118.85,85.95) ">
<g transform="matrix( 0.7199859619140625, 0, 0, 0.7199859619140625, -12.95,21.15) ">
<g transform="matrix( 1, 0, 0, 0.7261199951171875, 0,4) ">
<g transform="matrix( 0.453948974609375, 0, 0, 1.195404052734375, 0,0) ">
<g transform="matrix( 1, 0, 0, 1, 0,0) ">
<use filter="url(#Filter_2)" xlink:href="#Symbol_141_0_Layer0_0_FILL"/>
</g>
</g>
</g>

<g transform="matrix( 0.639984130859375, 0, 0, 0.639984130859375, -0.2,-52.95) ">
<g transform="matrix( 1, 0, 0, 1, 0,-0.05) ">
<g transform="matrix( 1, 0, 0, 1, -664.75,-424) ">
<use xlink:href="#Symbol_142_0_Layer0_0_FILL"/>
</g>
</g>

<g transform="matrix( 1, 0, 0, 1, -2.9,-10.2) ">
<g transform="matrix( 1, 0, 0, 1, -666.85,-404.85) ">
<use xlink:href="#Symbol_143_0_Layer0_0_FILL"/>
</g>
</g>
</g>
</g>
</g>

<g id="fire3_FL" transform="matrix( 0.6255035400390625, 0.2206573486328125, -0.206329345703125, 0.6689300537109375, 71.1,75.95) ">
<g transform="matrix( 0.7199859619140625, 0, 0, 0.7199859619140625, -12.95,21.15) ">
<g transform="matrix( 1, 0, 0, 0.7261199951171875, 0,4) ">
<g transform="matrix( 0.453948974609375, 0, 0, 1.195404052734375, 0,0) ">
<g transform="matrix( 1, 0, 0, 1, 0,0) ">
<use filter="url(#Filter_2)" xlink:href="#Symbol_141_0_Layer0_0_FILL"/>
</g>
</g>
</g>

<g transform="matrix( 0.639984130859375, 0, 0, 0.639984130859375, -0.2,-52.95) ">
<g transform="matrix( 1, 0, 0, 1, 0,-0.05) ">
<g transform="matrix( 1, 0, 0, 1, -664.75,-424) ">
<use xlink:href="#Symbol_142_0_Layer0_0_FILL"/>
</g>
</g>

<g transform="matrix( 1, 0, 0, 1, -2.9,-10.2) ">
<g transform="matrix( 1, 0, 0, 1, -666.85,-404.85) ">
<use xlink:href="#Symbol_143_0_Layer0_0_FILL"/>
</g>
</g>
</g>
</g>
</g>
</g>
</g>

<g id="fire_1" transform="matrix( 1, 0, 0, 1, 62.3,213.75) ">
<g transform="matrix( 0.65484619140625, 0, 0, 0.6390533447265625, -74.35,-77.7) ">
<g transform="matrix( 1, 0, 0, 1, 0,0) ">
<use xlink:href="#Symbol_1_0_Layer1_0_FILL"/>
</g>

<g transform="matrix( 1, 0, 0, 1, 0,0) ">
<use xlink:href="#Symbol_1_0_Layer0_0_FILL"/>
</g>
</g>

<g transform="matrix( 0.65484619140625, 0, 0, 0.6390533447265625, -48.1,-76.65) ">
<g transform="matrix( 1, 0, 0, 1, 0,0) ">
<use xlink:href="#Symbol_1_0_Layer1_0_FILL"/>
</g>

<g transform="matrix( 1, 0, 0, 1, 0,0) ">
<use xlink:href="#Symbol_1_0_Layer0_0_FILL"/>
</g>
</g>

<g id="ogien_FL" transform="matrix( 1, 0, 0, 1, -126.15,-70.75) ">
<g id="fire1_FL_FL" transform="matrix( 0.628936767578125, -0.0591888427734375, 0.0564117431640625, 0.659942626953125, 91,65.75) ">
<g transform="matrix( 0.7199859619140625, 0, 0, 0.7199859619140625, -12.95,21.15) ">
<g transform="matrix( 1, 0, 0, 0.7261199951171875, 0,4) ">
<g transform="matrix( 0.453948974609375, 0, 0, 1.195404052734375, 0,0) ">
<g transform="matrix( 1, 0, 0, 1, 0,0) ">
<use filter="url(#Filter_2)" xlink:href="#Symbol_141_0_Layer0_0_FILL"/>
</g>
</g>
</g>

<g transform="matrix( 0.639984130859375, 0, 0, 0.639984130859375, -0.2,-52.95) ">
<g transform="matrix( 1, 0, 0, 1, 0,-0.05) ">
<g transform="matrix( 1, 0, 0, 1, -664.75,-424) ">
<use xlink:href="#Symbol_142_0_Layer0_0_FILL"/>
</g>
</g>

<g transform="matrix( 1, 0, 0, 1, -2.9,-10.2) ">
<g transform="matrix( 1, 0, 0, 1, -666.85,-404.85) ">
<use xlink:href="#Symbol_143_0_Layer0_0_FILL"/>
</g>
</g>
</g>
</g>
</g>

<g id="fire2_FL_FL" transform="matrix( 0.6255035400390625, 0.0832672119140625, -0.079345703125, 0.6563262939453125, 54.25,65.2) ">
<g transform="matrix( 0.7199859619140625, 0, 0, 0.7199859619140625, -12.95,21.15) ">
<g transform="matrix( 1, 0, 0, 0.7261199951171875, 0,4) ">
<g transform="matrix( 0.453948974609375, 0, 0, 1.195404052734375, 0,0) ">
<g transform="matrix( 1, 0, 0, 1, 0,0) ">
<use filter="url(#Filter_2)" xlink:href="#Symbol_141_0_Layer0_0_FILL"/>
</g>
</g>
</g>

<g transform="matrix( 0.639984130859375, 0, 0, 0.639984130859375, -0.2,-52.95) ">
<g transform="matrix( 1, 0, 0, 1, 0,-0.05) ">
<g transform="matrix( 1, 0, 0, 1, -664.75,-424) ">
<use xlink:href="#Symbol_142_0_Layer0_0_FILL"/>
</g>
</g>

<g transform="matrix( 1, 0, 0, 1, -2.9,-10.2) ">
<g transform="matrix( 1, 0, 0, 1, -666.85,-404.85) ">
<use xlink:href="#Symbol_143_0_Layer0_0_FILL"/>
</g>
</g>
</g>
</g>
</g>
</g>
</g>

<g id="fire_0" transform="matrix( 1, 0, 0, 1, -38,130.15) ">
<g transform="matrix( 0.7852935791015625, 0, 0, 0.7303466796875, 40.85,10.35) ">
<g transform="matrix( 1, 0, 0, 1, 0,0) ">
<use xlink:href="#Symbol_1_0_Layer1_0_FILL"/>
</g>

<g transform="matrix( 1, 0, 0, 1, 0,0) ">
<use xlink:href="#Symbol_1_0_Layer0_0_FILL"/>
</g>
</g>

<g id="fire1_FL_FL_FL" transform="matrix( 0.7564697265625, -0.031158447265625, 0.031158447265625, 0.7564697265625, 55.65,90.55) ">
<g transform="matrix( 0.7199859619140625, 0, 0, 0.7199859619140625, -12.95,21.15) ">
<g transform="matrix( 1, 0, 0, 0.7261199951171875, 0,4) ">
<g transform="matrix( 0.453948974609375, 0, 0, 1.195404052734375, 0,0) ">
<g transform="matrix( 1, 0, 0, 1, 0,0) ">
<use filter="url(#Filter_2)" xlink:href="#Symbol_141_0_Layer0_0_FILL"/>
</g>
</g>
</g>

<g transform="matrix( 0.639984130859375, 0, 0, 0.639984130859375, -0.2,-52.95) ">
<g transform="matrix( 1, 0, 0, 1, 0,-0.05) ">
<g transform="matrix( 1, 0, 0, 1, -664.75,-424) ">
<use xlink:href="#Symbol_142_0_Layer0_0_FILL"/>
</g>
</g>

<g transform="matrix( 1, 0, 0, 1, -2.9,-10.2) ">
<g transform="matrix( 1, 0, 0, 1, -666.85,-404.85) ">
<use xlink:href="#Symbol_143_0_Layer0_0_FILL"/>
</g>
</g>
</g>
</g>
</g>
</g>
</g>

<g transform="matrix( 1, 0, 0, 1, 17.75,8.15) ">
<g transform="matrix( 1, -0.0001220703125, 0.0001220703125, 1, 7,0) ">
<g transform="matrix( 1, 0, 0, 1, 0,0) ">
<use xlink:href="#bt1_0_Layer5_0_FILL"/>
</g>

<g transform="matrix( 1, 0, 0, 1, 0,0) ">
<use xlink:href="#bt1_0_Layer4_0_FILL"/>
</g>

<g transform="matrix( 1, 0, 0, 1, 0,0) ">
<use xlink:href="#bt1_0_Layer3_0_FILL"/>
</g>

<g transform="matrix( 1, 0, 0, 1, 0,0) ">
<use xlink:href="#bt1_0_Layer2_0_FILL"/>
</g>
</g>
</g>

<g id="dynamicScale" transform="matrix( 1, 0, 0, 1, 32.65,43.45) "/>

<g transform="matrix( 0.5942840576171875, 0, 0, 0.11505126953125, 116.5,256.35) ">
<g transform="matrix( 1, 0, 0, 1, 0,0) ">
<use xlink:href="#podkladka_bia_a_19_Layer2_0_FILL"/>
</g>

<g transform="matrix( 1, 0, 0, 1, 0,0) ">
<use xlink:href="#podkladka_bia_a_19_Layer1_0_1_STROKES"/>
</g>

<g transform="matrix( 1, 0, 0, 1, 0,0) ">
<use xlink:href="#podkladka_bia_a_19_Layer0_0_1_STROKES"/>
</g>
</g>

<g transform="matrix( 1, 0, 0, 1, 186.15,8.15) ">
<g transform="matrix( 1, -0.0001220703125, 0.0001220703125, 1, 7,0) ">
<g transform="matrix( 1, 0, 0, 1, 0,0) ">
<use xlink:href="#bt1_0_Layer5_0_FILL"/>
</g>

<g transform="matrix( 1, 0, 0, 1, 0,0) ">
<use xlink:href="#bt1_0_Layer4_0_FILL"/>
</g>

<g transform="matrix( 1, 0, 0, 1, 0,0) ">
<use xlink:href="#bt1_0_Layer3_0_FILL"/>
</g>

<g transform="matrix( 1, 0, 0, 1, 0,0) ">
<use xlink:href="#bt1_0_Layer2_0_FILL"/>
</g>
</g>
</g>

<g id="dynamicScale_FL" transform="matrix( 1, 0, 0, 1, 206.05,43.45) "/>

<g transform="matrix( 1, 0, 0, 1, 0,0) ">
<use xlink:href="#Layer3_5_FILL"/>
</g>

<g transform="matrix( 1, 0, 0, 1, 0,0) ">
<use xlink:href="#Layer3_6_FILL"/>
</g>

<g transform="matrix( 1, 0, 0, 1, 0,0) ">
<use xlink:href="#Layer3_7_FILL"/>
</g>

<g id="resetBtn" transform="matrix( 1, 0, 0, 1, 293,227) ">
<g transform="matrix( 0.9999847412109375, 0, 0, 0.9999847412109375, 0,0) ">
<g transform="matrix( 0.8889007568359375, 0, 0, 0.8889007568359375, 221.35,-289.65) ">
<use xlink:href="#up_over_0_Layer2_0_FILL"/>
</g>

<g transform="matrix( 0.8148193359375, 0, 0, 0.8148193359375, 205.25,-263.1) ">
<use xlink:href="#up_over_0_Layer1_0_FILL"/>
</g>

<g transform="matrix( 1, 0, 0, 1, 0,0) ">
<use xlink:href="#up_over_0_Layer0_0_MEMBER_0_FILL"/>
</g>

<g transform="matrix( 1, 0, 0, 1, 0,0) ">
<use xlink:href="#up_over_0_Layer0_0_MEMBER_1_FILL"/>
</g>
</g>

<g transform="matrix( 1.0365447998046875, 0, 0, 1.03741455078125, 253.45,-342.9) ">
<use xlink:href="#_resetButton_mc_0_Layer1_0_FILL"/>
</g>
</g>

<g id="playBtn" transform="matrix( 1, 0, 0, 1, 236.45,228.1) ">
<g transform="matrix( 0.774200439453125, 0, 0, 0.774200439453125, -26.95,-28.5) ">
<use xlink:href="#b_play_0_Layer3_0_FILL"/>
</g>

<g transform="matrix( 0.709686279296875, 0, 0, 0.709686279296875, -22.4,-23.8) ">
<use xlink:href="#b_play_0_Layer3_1_FILL"/>
</g>

<g transform="matrix( 1, 0, 0, 1, 0,0) ">
<use xlink:href="#b_play_0_Layer2_0_FILL"/>
</g>

<g transform="matrix( 1.0365447998046875, 0, 0, 1.03741455078125, 253.45,-343.9) ">
<use xlink:href="#b_play_0_Layer1_0_FILL"/>
</g>
</g>
</svg>
